<svg xmlns="http://www.w3.org/2000/svg" xmlns:xlink="http://www.w3.org/1999/xlink" width="1200" zoomAndPan="magnify" viewBox="0 0 900 899.99999" height="1200" preserveAspectRatio="xMidYMid meet" version="1.0"><defs><g/><clipPath id="3e2d3588b5"><rect x="0" width="94" y="0" height="25"/></clipPath><clipPath id="30efdaf14d"><path d="M 239.050781 474.460938 L 327.550781 474.460938 L 327.550781 562.960938 L 239.050781 562.960938 Z M 239.050781 474.460938 " clip-rule="nonzero"/></clipPath></defs><rect x="-90" width="1080" fill="#ffffff" y="-89.999999" height="1079.999988" fill-opacity="1"/><rect x="-90" width="1080" fill="#ffffff" y="-89.999999" height="1079.999988" fill-opacity="1"/><g fill="#6b9571" fill-opacity="1"><g transform="translate(347.127085, 547.048671)"><g><path d="M 7.359375 0 L 7.359375 -62.375 L 21.4375 -62.375 L 21.4375 0 Z M 7.359375 0 "/></g></g></g><g fill="#6b9571" fill-opacity="1"><g transform="translate(375.924322, 547.048671)"><g><path d="M 24.484375 1.046875 C 18.617188 1.046875 14.410156 -0.65625 11.859375 -4.0625 C 9.304688 -7.476562 8.03125 -11.894531 8.03125 -17.3125 L 8.03125 -36.453125 L 1.625 -36.453125 L 1.625 -46.875 L 8.890625 -47.453125 L 10.53125 -62 L 22.203125 -62 L 22.203125 -47.453125 L 33.578125 -47.453125 L 33.578125 -36.453125 L 22.203125 -36.453125 L 22.203125 -17.515625 C 22.203125 -14.828125 22.757812 -12.894531 23.875 -11.71875 C 24.988281 -10.539062 26.46875 -9.953125 28.3125 -9.953125 C 29.082031 -9.953125 29.847656 -10.015625 30.609375 -10.140625 C 31.378906 -10.265625 32.113281 -10.457031 32.8125 -10.71875 L 35.109375 -0.859375 C 33.898438 -0.347656 32.382812 0.09375 30.5625 0.46875 C 28.75 0.851562 26.722656 1.046875 24.484375 1.046875 Z M 24.484375 1.046875 "/></g></g></g><g fill="#6b9571" fill-opacity="1"><g transform="translate(412.566653, 547.048671)"><g><path d="M 6.21875 0 L 6.21875 -47.453125 L 20.28125 -47.453125 L 20.28125 0 Z M 13.203125 -54.4375 C 10.835938 -54.4375 8.921875 -55.101562 7.453125 -56.4375 C 5.992188 -57.78125 5.265625 -59.566406 5.265625 -61.796875 C 5.265625 -64.035156 5.992188 -65.820312 7.453125 -67.15625 C 8.921875 -68.5 10.835938 -69.171875 13.203125 -69.171875 C 15.566406 -69.171875 17.476562 -68.5 18.9375 -67.15625 C 20.40625 -65.820312 21.140625 -64.035156 21.140625 -61.796875 C 21.140625 -59.566406 20.40625 -57.78125 18.9375 -56.4375 C 17.476562 -55.101562 15.566406 -54.4375 13.203125 -54.4375 Z M 13.203125 -54.4375 "/></g></g></g><g fill="#6b9571" fill-opacity="1"><g transform="translate(438.972097, 547.048671)"><g><path d="M 6.21875 0 L 6.21875 -47.453125 L 17.703125 -47.453125 L 18.65625 -41.421875 L 19.03125 -41.421875 C 21.007812 -43.398438 23.242188 -45.085938 25.734375 -46.484375 C 28.222656 -47.890625 31.0625 -48.59375 34.25 -48.59375 C 39.476562 -48.59375 43.238281 -46.882812 45.53125 -43.46875 C 47.832031 -40.0625 48.984375 -35.394531 48.984375 -29.46875 L 48.984375 0 L 34.921875 0 L 34.921875 -27.65625 C 34.921875 -31.09375 34.457031 -33.445312 33.53125 -34.71875 C 32.601562 -36 31.117188 -36.640625 29.078125 -36.640625 C 27.296875 -36.640625 25.765625 -36.238281 24.484375 -35.4375 C 23.210938 -34.644531 21.8125 -33.515625 20.28125 -32.046875 L 20.28125 0 Z M 6.21875 0 "/></g></g></g><g fill="#6b9571" fill-opacity="1"><g transform="translate(493.696413, 547.048671)"><g><path d="M 27.453125 1.140625 C 22.929688 1.140625 18.851562 0.15625 15.21875 -1.8125 C 11.582031 -3.789062 8.707031 -6.628906 6.59375 -10.328125 C 4.488281 -14.023438 3.4375 -18.492188 3.4375 -23.734375 C 3.4375 -28.890625 4.503906 -33.316406 6.640625 -37.015625 C 8.785156 -40.722656 11.578125 -43.578125 15.015625 -45.578125 C 18.460938 -47.585938 22.066406 -48.59375 25.828125 -48.59375 C 30.359375 -48.59375 34.125 -47.585938 37.125 -45.578125 C 40.125 -43.578125 42.351562 -40.851562 43.8125 -37.40625 C 45.28125 -33.957031 46.015625 -30.097656 46.015625 -25.828125 C 46.015625 -24.617188 45.953125 -23.421875 45.828125 -22.234375 C 45.703125 -21.054688 45.570312 -20.117188 45.4375 -19.421875 L 14.34375 -19.421875 L 14.15625 -29.1875 L 33.96875 -29.1875 C 33.96875 -31.664062 33.359375 -33.71875 32.140625 -35.34375 C 30.929688 -36.976562 28.925781 -37.796875 26.125 -37.796875 C 24.59375 -37.796875 23.09375 -37.378906 21.625 -36.546875 C 20.15625 -35.710938 18.941406 -34.273438 17.984375 -32.234375 C 17.023438 -30.203125 16.578125 -27.367188 16.640625 -23.734375 C 16.710938 -20.160156 17.367188 -17.351562 18.609375 -15.3125 C 19.847656 -13.269531 21.425781 -11.816406 23.34375 -10.953125 C 25.257812 -10.085938 27.269531 -9.65625 29.375 -9.65625 C 31.21875 -9.65625 32.984375 -9.925781 34.671875 -10.46875 C 36.367188 -11.019531 38.046875 -11.769531 39.703125 -12.71875 L 44.296875 -4.109375 C 41.929688 -2.453125 39.25 -1.160156 36.25 -0.234375 C 33.257812 0.679688 30.328125 1.140625 27.453125 1.140625 Z M 27.453125 1.140625 "/></g></g></g><g fill="#6b9571" fill-opacity="1"><g transform="translate(543.254456, 547.048671)"><g><path d="M 6.21875 0 L 6.21875 -47.453125 L 17.703125 -47.453125 L 18.65625 -39.125 L 19.03125 -39.125 C 20.757812 -42.3125 22.816406 -44.6875 25.203125 -46.25 C 27.597656 -47.8125 30.039062 -48.59375 32.53125 -48.59375 C 33.863281 -48.59375 34.976562 -48.515625 35.875 -48.359375 C 36.769531 -48.203125 37.535156 -47.960938 38.171875 -47.640625 L 35.5 -35.6875 C 34.726562 -35.875 33.988281 -36.015625 33.28125 -36.109375 C 32.582031 -36.210938 31.722656 -36.265625 30.703125 -36.265625 C 28.921875 -36.265625 27.054688 -35.625 25.109375 -34.34375 C 23.171875 -33.070312 21.5625 -30.804688 20.28125 -27.546875 L 20.28125 0 Z M 6.21875 0 "/></g></g></g><g fill="#6b9571" fill-opacity="1"><g transform="translate(578.652906, 547.048671)"><g><path d="M 18.171875 1.140625 C 15.304688 1.140625 12.804688 0.503906 10.671875 -0.765625 C 8.535156 -2.035156 6.890625 -3.753906 5.734375 -5.921875 C 4.585938 -8.097656 4.015625 -10.523438 4.015625 -13.203125 C 4.015625 -18.304688 6.117188 -22.242188 10.328125 -25.015625 C 14.535156 -27.796875 21.328125 -29.660156 30.703125 -30.609375 C 30.640625 -32.015625 30.335938 -33.210938 29.796875 -34.203125 C 29.253906 -35.191406 28.441406 -35.957031 27.359375 -36.5 C 26.273438 -37.039062 24.90625 -37.3125 23.25 -37.3125 C 21.269531 -37.3125 19.257812 -36.957031 17.21875 -36.25 C 15.175781 -35.550781 12.976562 -34.535156 10.625 -33.203125 L 5.640625 -42.375 C 7.679688 -43.65625 9.785156 -44.757812 11.953125 -45.6875 C 14.128906 -46.613281 16.378906 -47.328125 18.703125 -47.828125 C 21.035156 -48.335938 23.441406 -48.59375 25.921875 -48.59375 C 30.003906 -48.59375 33.429688 -47.8125 36.203125 -46.25 C 38.984375 -44.6875 41.109375 -42.328125 42.578125 -39.171875 C 44.046875 -36.015625 44.78125 -31.984375 44.78125 -27.078125 L 44.78125 0 L 33.296875 0 L 32.34375 -4.875 L 31.953125 -4.875 C 29.910156 -3.09375 27.773438 -1.644531 25.546875 -0.53125 C 23.316406 0.582031 20.859375 1.140625 18.171875 1.140625 Z M 22.859375 -9.859375 C 24.453125 -9.859375 25.851562 -10.207031 27.0625 -10.90625 C 28.28125 -11.601562 29.492188 -12.5625 30.703125 -13.78125 L 30.703125 -21.8125 C 27.390625 -21.363281 24.757812 -20.785156 22.8125 -20.078125 C 20.875 -19.378906 19.503906 -18.535156 18.703125 -17.546875 C 17.910156 -16.566406 17.515625 -15.46875 17.515625 -14.25 C 17.515625 -12.78125 18.003906 -11.679688 18.984375 -10.953125 C 19.972656 -10.222656 21.265625 -9.859375 22.859375 -9.859375 Z M 22.859375 -9.859375 "/></g></g></g><g transform="matrix(1, 0, 0, 1, 534, 552)"><g clip-path="url(#3e2d3588b5)"><g fill="#6b9571" fill-opacity="1"><g transform="translate(0.355641, 18.867955)"><g><path d="M 8.03125 -11.796875 C 9.113281 -11.796875 10.09375 -11.535156 10.96875 -11.015625 C 11.84375 -10.492188 12.53125 -9.78125 13.03125 -8.875 C 13.539062 -7.96875 13.796875 -6.960938 13.796875 -5.859375 C 13.796875 -4.742188 13.535156 -3.726562 13.015625 -2.8125 C 12.492188 -1.90625 11.78125 -1.191406 10.875 -0.671875 C 9.976562 -0.148438 8.972656 0.109375 7.859375 0.109375 C 6.742188 0.109375 5.734375 -0.148438 4.828125 -0.671875 C 3.929688 -1.191406 3.222656 -1.90625 2.703125 -2.8125 C 2.179688 -3.726562 1.921875 -4.742188 1.921875 -5.859375 L 1.921875 -10.875 C 1.921875 -10.957031 1.925781 -11.019531 1.9375 -11.0625 L 1.9375 -15.84375 C 1.9375 -16.09375 2.007812 -16.296875 2.15625 -16.453125 C 2.3125 -16.609375 2.507812 -16.6875 2.75 -16.6875 C 3 -16.6875 3.203125 -16.609375 3.359375 -16.453125 C 3.515625 -16.296875 3.59375 -16.09375 3.59375 -15.84375 L 3.59375 -9.59375 C 4.09375 -10.269531 4.722656 -10.804688 5.484375 -11.203125 C 6.253906 -11.597656 7.101562 -11.796875 8.03125 -11.796875 Z M 7.859375 -1.390625 C 8.671875 -1.390625 9.40625 -1.582031 10.0625 -1.96875 C 10.726562 -2.363281 11.25 -2.898438 11.625 -3.578125 C 12.007812 -4.253906 12.203125 -5.015625 12.203125 -5.859375 C 12.203125 -6.691406 12.007812 -7.445312 11.625 -8.125 C 11.25 -8.800781 10.726562 -9.332031 10.0625 -9.71875 C 9.40625 -10.101562 8.671875 -10.296875 7.859375 -10.296875 C 6.734375 -10.296875 5.773438 -9.9375 4.984375 -9.21875 C 4.191406 -8.507812 3.726562 -7.601562 3.59375 -6.5 C 3.59375 -6.445312 3.582031 -6.410156 3.5625 -6.390625 C 3.550781 -6.273438 3.546875 -6.097656 3.546875 -5.859375 C 3.546875 -5.015625 3.734375 -4.253906 4.109375 -3.578125 C 4.484375 -2.898438 5 -2.363281 5.65625 -1.96875 C 6.3125 -1.582031 7.046875 -1.390625 7.859375 -1.390625 Z M 7.859375 -1.390625 "/></g></g></g><g fill="#6b9571" fill-opacity="1"><g transform="translate(15.199734, 18.867955)"><g><path d="M 11.0625 -11.625 C 11.394531 -11.488281 11.5625 -11.28125 11.5625 -11 C 11.5625 -10.875 11.53125 -10.742188 11.46875 -10.609375 L 4.546875 4.59375 C 4.421875 4.914062 4.21875 5.078125 3.9375 5.078125 C 3.789062 5.078125 3.660156 5.050781 3.546875 5 C 3.210938 4.875 3.046875 4.660156 3.046875 4.359375 C 3.046875 4.234375 3.078125 4.101562 3.140625 3.96875 L 5.25 -0.703125 L 5.25 -0.71875 L 0.484375 -10.59375 C 0.429688 -10.707031 0.40625 -10.835938 0.40625 -10.984375 C 0.40625 -11.273438 0.5625 -11.488281 0.875 -11.625 C 0.988281 -11.675781 1.117188 -11.703125 1.265625 -11.703125 C 1.554688 -11.703125 1.769531 -11.550781 1.90625 -11.25 L 6.0625 -2.484375 L 10.03125 -11.234375 C 10.175781 -11.546875 10.394531 -11.703125 10.6875 -11.703125 C 10.8125 -11.703125 10.9375 -11.675781 11.0625 -11.625 Z M 11.0625 -11.625 "/></g></g></g><g fill="#6b9571" fill-opacity="1"><g transform="translate(26.904172, 18.867955)"><g/></g></g><g fill="#6b9571" fill-opacity="1"><g transform="translate(33.1736, 18.867955)"><g><path d="M 7.734375 -11.796875 C 8.710938 -11.796875 9.59375 -11.582031 10.375 -11.15625 C 11.164062 -10.726562 11.78125 -10.101562 12.21875 -9.28125 C 12.65625 -8.457031 12.875 -7.472656 12.875 -6.328125 L 12.875 -1.0625 C 12.875 -0.75 12.769531 -0.488281 12.5625 -0.28125 C 12.363281 -0.0820312 12.109375 0.015625 11.796875 0.015625 C 11.484375 0.015625 11.222656 -0.0820312 11.015625 -0.28125 C 10.804688 -0.488281 10.703125 -0.75 10.703125 -1.0625 L 10.703125 -6.328125 C 10.703125 -7.472656 10.390625 -8.34375 9.765625 -8.9375 C 9.148438 -9.53125 8.332031 -9.828125 7.3125 -9.828125 C 6.707031 -9.828125 6.160156 -9.703125 5.671875 -9.453125 C 5.179688 -9.210938 4.796875 -8.882812 4.515625 -8.46875 C 4.234375 -8.0625 4.09375 -7.601562 4.09375 -7.09375 L 4.09375 -1.0625 C 4.09375 -0.75 3.992188 -0.488281 3.796875 -0.28125 C 3.597656 -0.0820312 3.335938 0.015625 3.015625 0.015625 C 2.703125 0.015625 2.441406 -0.0820312 2.234375 -0.28125 C 2.023438 -0.488281 1.921875 -0.75 1.921875 -1.0625 L 1.921875 -10.59375 C 1.921875 -10.914062 2.023438 -11.175781 2.234375 -11.375 C 2.441406 -11.582031 2.703125 -11.6875 3.015625 -11.6875 C 3.335938 -11.6875 3.597656 -11.582031 3.796875 -11.375 C 3.992188 -11.175781 4.09375 -10.914062 4.09375 -10.59375 L 4.09375 -10.359375 C 4.550781 -10.816406 5.09375 -11.171875 5.71875 -11.421875 C 6.351562 -11.671875 7.023438 -11.796875 7.734375 -11.796875 Z M 7.734375 -11.796875 "/></g></g></g><g fill="#6b9571" fill-opacity="1"><g transform="translate(47.74007, 18.867955)"><g><path d="M 12.40625 -6.015625 C 12.40625 -5.753906 12.3125 -5.53125 12.125 -5.34375 C 11.945312 -5.164062 11.710938 -5.078125 11.421875 -5.078125 L 3.3125 -5.078125 C 3.46875 -4.085938 3.914062 -3.285156 4.65625 -2.671875 C 5.40625 -2.054688 6.320312 -1.75 7.40625 -1.75 C 7.832031 -1.75 8.273438 -1.828125 8.734375 -1.984375 C 9.203125 -2.140625 9.585938 -2.332031 9.890625 -2.5625 C 10.085938 -2.71875 10.320312 -2.796875 10.59375 -2.796875 C 10.863281 -2.796875 11.078125 -2.722656 11.234375 -2.578125 C 11.492188 -2.367188 11.625 -2.128906 11.625 -1.859375 C 11.625 -1.597656 11.507812 -1.382812 11.28125 -1.21875 C 10.789062 -0.832031 10.1875 -0.519531 9.46875 -0.28125 C 8.75 -0.0390625 8.0625 0.078125 7.40625 0.078125 C 6.238281 0.078125 5.191406 -0.171875 4.265625 -0.671875 C 3.347656 -1.179688 2.628906 -1.882812 2.109375 -2.78125 C 1.585938 -3.675781 1.328125 -4.691406 1.328125 -5.828125 C 1.328125 -6.972656 1.570312 -7.992188 2.0625 -8.890625 C 2.550781 -9.796875 3.234375 -10.5 4.109375 -11 C 4.984375 -11.507812 5.976562 -11.765625 7.09375 -11.765625 C 8.1875 -11.765625 9.128906 -11.519531 9.921875 -11.03125 C 10.722656 -10.550781 11.335938 -9.875 11.765625 -9 C 12.191406 -8.132812 12.40625 -7.140625 12.40625 -6.015625 Z M 7.09375 -9.9375 C 6.050781 -9.9375 5.207031 -9.648438 4.5625 -9.078125 C 3.914062 -8.503906 3.503906 -7.742188 3.328125 -6.796875 L 10.4375 -6.796875 C 10.3125 -7.742188 9.957031 -8.503906 9.375 -9.078125 C 8.789062 -9.648438 8.03125 -9.9375 7.09375 -9.9375 Z M 7.09375 -9.9375 "/></g></g></g><g fill="#6b9571" fill-opacity="1"><g transform="translate(60.576452, 18.867955)"><g><path d="M 7.21875 -11.765625 C 8.3125 -11.765625 9.300781 -11.503906 10.1875 -10.984375 C 11.082031 -10.460938 11.789062 -9.75 12.3125 -8.84375 C 12.832031 -7.945312 13.09375 -6.941406 13.09375 -5.828125 L 13.09375 -1.0625 C 13.09375 -0.75 12.988281 -0.488281 12.78125 -0.28125 C 12.570312 -0.0820312 12.3125 0.015625 12 0.015625 C 11.6875 0.015625 11.425781 -0.0820312 11.21875 -0.28125 C 11.019531 -0.488281 10.921875 -0.75 10.921875 -1.0625 L 10.921875 -1.859375 C 10.421875 -1.242188 9.8125 -0.765625 9.09375 -0.421875 C 8.382812 -0.0859375 7.617188 0.078125 6.796875 0.078125 C 5.765625 0.078125 4.832031 -0.175781 4 -0.6875 C 3.164062 -1.195312 2.507812 -1.90625 2.03125 -2.8125 C 1.5625 -3.71875 1.328125 -4.722656 1.328125 -5.828125 C 1.328125 -6.941406 1.582031 -7.945312 2.09375 -8.84375 C 2.601562 -9.75 3.3125 -10.460938 4.21875 -10.984375 C 5.125 -11.503906 6.125 -11.765625 7.21875 -11.765625 Z M 7.21875 -1.84375 C 7.925781 -1.84375 8.566406 -2.015625 9.140625 -2.359375 C 9.722656 -2.710938 10.175781 -3.191406 10.5 -3.796875 C 10.832031 -4.398438 11 -5.078125 11 -5.828125 C 11 -6.585938 10.832031 -7.269531 10.5 -7.875 C 10.175781 -8.488281 9.722656 -8.96875 9.140625 -9.3125 C 8.566406 -9.664062 7.925781 -9.84375 7.21875 -9.84375 C 6.507812 -9.84375 5.863281 -9.664062 5.28125 -9.3125 C 4.707031 -8.96875 4.253906 -8.488281 3.921875 -7.875 C 3.585938 -7.269531 3.421875 -6.585938 3.421875 -5.828125 C 3.421875 -5.078125 3.585938 -4.398438 3.921875 -3.796875 C 4.253906 -3.191406 4.707031 -2.710938 5.28125 -2.359375 C 5.863281 -2.015625 6.507812 -1.84375 7.21875 -1.84375 Z M 7.21875 -1.84375 "/></g></g></g><g fill="#6b9571" fill-opacity="1"><g transform="translate(74.993414, 18.867955)"><g><path d="M 10.84375 -11.578125 C 11.289062 -11.410156 11.515625 -11.132812 11.515625 -10.75 C 11.515625 -10.601562 11.472656 -10.429688 11.390625 -10.234375 L 4.84375 4.46875 C 4.675781 4.90625 4.398438 5.125 4.015625 5.125 C 3.867188 5.125 3.695312 5.082031 3.5 5 C 3.070312 4.8125 2.859375 4.535156 2.859375 4.171875 C 2.859375 3.992188 2.898438 3.820312 2.984375 3.65625 L 5.125 -1.15625 L 0.328125 -10.28125 C 0.253906 -10.40625 0.21875 -10.550781 0.21875 -10.71875 C 0.21875 -10.90625 0.273438 -11.078125 0.390625 -11.234375 C 0.503906 -11.390625 0.648438 -11.507812 0.828125 -11.59375 C 0.960938 -11.65625 1.109375 -11.6875 1.265625 -11.6875 C 1.660156 -11.6875 1.957031 -11.484375 2.15625 -11.078125 L 6.0625 -3.3125 L 9.5 -11.0625 C 9.6875 -11.476562 9.96875 -11.6875 10.34375 -11.6875 C 10.519531 -11.6875 10.6875 -11.648438 10.84375 -11.578125 Z M 10.84375 -11.578125 "/></g></g></g><g fill="#6b9571" fill-opacity="1"><g transform="translate(86.505616, 18.867955)"><g><path d="M 3.21875 0 C 2.90625 0 2.644531 -0.101562 2.4375 -0.3125 C 2.238281 -0.519531 2.140625 -0.78125 2.140625 -1.09375 L 2.140625 -10.59375 C 2.140625 -10.914062 2.238281 -11.175781 2.4375 -11.375 C 2.644531 -11.582031 2.90625 -11.6875 3.21875 -11.6875 C 3.550781 -11.6875 3.816406 -11.582031 4.015625 -11.375 C 4.210938 -11.175781 4.3125 -10.914062 4.3125 -10.59375 L 4.3125 -1.09375 C 4.3125 -0.78125 4.210938 -0.519531 4.015625 -0.3125 C 3.816406 -0.101562 3.550781 0 3.21875 0 Z M 3.21875 -13.578125 C 2.832031 -13.578125 2.5 -13.71875 2.21875 -14 C 1.945312 -14.28125 1.8125 -14.613281 1.8125 -15 C 1.8125 -15.382812 1.945312 -15.710938 2.21875 -15.984375 C 2.5 -16.265625 2.832031 -16.40625 3.21875 -16.40625 C 3.601562 -16.40625 3.9375 -16.265625 4.21875 -15.984375 C 4.5 -15.710938 4.640625 -15.382812 4.640625 -15 C 4.640625 -14.613281 4.5 -14.28125 4.21875 -14 C 3.9375 -13.71875 3.601562 -13.578125 3.21875 -13.578125 Z M 3.21875 -13.578125 "/></g></g></g></g></g><g clip-path="url(#30efdaf14d)"><path stroke-linecap="butt" transform="matrix(8.85, 0, 0, 8.85, 239.052532, 474.461155)" fill="none" stroke-linejoin="round" d="M 8.997861 0.502271 L 1.002186 0.502271 C 0.726321 0.502271 0.502097 0.726494 0.502097 1.002359 L 0.502097 8.998034 C 0.502097 9.273899 0.726321 9.498122 1.002186 9.498122 L 8.997861 9.498122 C 9.273726 9.498122 9.497949 9.273899 9.497949 8.998034 L 9.497949 1.002359 C 9.497949 0.726494 9.273726 0.502271 8.997861 0.502271 Z M 8.997861 0.502271 " stroke="#6b9571" stroke-width="1" stroke-opacity="1" stroke-miterlimit="4"/><path stroke-linecap="butt" transform="matrix(8.85, 0, 0, 8.85, 239.052532, 474.461155)" fill="none" stroke-linejoin="miter" d="M 3.126126 0.502271 L 6.87392 9.498122 " stroke="#6b9571" stroke-width="1" stroke-opacity="1" stroke-miterlimit="4"/><path stroke-linecap="butt" transform="matrix(8.85, 0, 0, 8.85, 239.052532, 474.461155)" fill="none" stroke-linejoin="miter" d="M 4.999802 4.999976 L 0.502097 7.248828 " stroke="#6b9571" stroke-width="1" stroke-opacity="1" stroke-miterlimit="4"/></g></svg>